<svg xmlns="http://www.w3.org/2000/svg" xmlns:xlink="http://www.w3.org/1999/xlink" version="1.1" id="parrrots-logo" x="0px" y="0px" viewBox="-10 -4 110 110" enable-background="new 0 0 100 100" xml:space="preserve" height="500px" width="500px">

 <circle cx="45" cy="51" r="54" fill="none" stroke="black" stroke-width="2.5"  />
    <g id="Bird-Background">
        <path fill="#000" d="M76.2,21.9c-0.8-0.1-1.6,0.6-1.7,1.4C74.5,24.2,75.1,25,76,25c0.1,0,0.2,0,0.3,0c2,0,5.2-1.4,6-3.8   c0.4-1.1,0.5-3.2-2.6-5.2c-0.3-0.2-0.5-0.2-0.8-0.2H68.1c0,0,0,0-0.1,0H51.6V8.1c0-1.7-1.4-3.1-3.1-3.1H32c0,0,0,0,0,0H21.1   c-0.3,0-0.6,0.1-0.8,0.2c-3.1,2-3,4.1-2.6,5.2c0.8,2.4,4,3.8,6,3.8c0.1,0,0.2,0,0.3,0c0.9-0.1,1.5-0.8,1.4-1.7   c-0.1-0.9-0.8-1.5-1.7-1.4c-1,0.1-2.9-0.8-3.2-1.6c-0.1-0.4,0.4-0.9,1-1.4h7.1l-3,9l-6.6,6.6c-0.9,0.9-1.2,2.2-0.7,3.4   c0.5,1.2,1.6,1.9,2.9,1.9H27l1.9,3.5c0.1,0.2,0.1,0.4-0.1,0.5c-0.1,0.1-0.2,0.2-0.2,0.4l-3.9,8.1c-0.5,0.9-0.8,1.9-0.8,2.9v9   c0,1.3,0.4,2.5,1.3,3.4l3.8,4.8h-4.8c-1.7,0-3.1,1.4-3.1,3.1v7.6c0,1.2,0.7,2.4,1.9,2.9c0.4,0.2,0.8,0.2,1.2,0.2   c0.8,0,1.6-0.3,2.2-0.9l3-2.9h7.4c0.1,0,0.2,0,0.3,0L46,83c0.6,0.8,1.5,1.2,2.4,1.2v7.7c0,1.3,0.8,2.5,2.1,2.9   c0.3,0.1,0.7,0.2,1,0.2c0.9,0,1.8-0.4,2.4-1.2l9-11.4c0.1,0,0.2,0,0.3,0h7.4l3,2.9c0.6,0.6,1.4,0.9,2.2,0.9c0.4,0,0.8-0.1,1.2-0.2   c1.1-0.5,1.9-1.6,1.9-2.9v-7.6c0-1.7-1.4-3.1-3.1-3.1H71l3.8-4.8c0.8-1,1.3-2.2,1.3-3.4v-9c0-1-0.3-2.1-0.8-2.9l-3.9-8.1   c-0.1-0.1-0.1-0.3-0.2-0.4c-0.1-0.2-0.1-0.4-0.1-0.5l1.9-3.5h5.8c1.3,0,2.4-0.8,2.9-1.9c0.5-1.2,0.2-2.5-0.7-3.4l-6.6-6.6l-3-9h7.1   c0.6,0.4,1.1,1,1,1.4C79.1,21.1,77.2,22,76.2,21.9z"/>
    </g>
    <g id="Left-Bird">
        <path id="Left-Wing" fill="#FF0" d="M48.4,54.3l-6.5-7.8c-0.3-0.3-0.8-0.4-1.1-0.1c-0.3,0.3-0.4,0.8-0.1,1.1   l7.7,9.2v6l-6.5-7.8c-0.3-0.3-0.8-0.4-1.1-0.1c-0.3,0.3-0.4,0.8-0.1,1.1l7.7,9.3v4.9l-13-15.6c-0.3-0.3-0.4-0.7-0.4-1.1l0.3-11.9   c0-0.6,0.3-1.1,0.9-1.4l4.4-2.3c0.5-0.2,1-0.3,1.5,0l6.3,3.2V54.3z"/>
        <path id="Left-Beak" fill="#FF0" d="M21.3,25.8l5.9-5.9l0.2,5.9   H21.3z"/>
        <path id="Left-Foot" fill="#FF0" d="M28.1,68.6l-2.7,2.6l1.4-3.9h3.1c0.4,0,0.7-0.3,0.7-0.7c0-0.4-0.3-0.7-0.7-0.7h-3.6c-0.3,0-0.6,0.2-0.7,0.5l-1.5,3.9v-5.6   h7.3l3.1,3.9H28.1z"/>
        <path id="Left-Body" fill="#FF0" d="M27.7,54.9c-0.4-0.4-0.5-0.9-0.5-1.5v-9c0-0.5,0.2-1,0.4-1.4l4-8.2c0,0,0,0,0,0H38c0.4,0,0.8-0.3,0.8-0.8   s-0.3-0.8-0.8-0.8h-5.9c0.1-0.7,0-1.4-0.3-2.1l-2.8-5.1l-0.3-7.8c0,0,0-0.1,0-0.1L32,8.1h16.5v10.7c0,0,0,0.1,0,0.1v20.3l-5.6-2.9   c-0.9-0.5-2-0.5-2.9,0l-4.4,2.3c-1,0.5-1.7,1.6-1.7,2.7l-0.3,11.9c0,0.8,0.2,1.5,0.7,2.1l14.2,17.1v8.6L27.7,54.9z"/>
    </g>
    <g id="Right-Bird">
        <path id="Right-Wing" fill="#FF0" d="M51.6,76l7.7-9.3c0.3-0.3,0.2-0.8-0.1-1.1   c-0.3-0.3-0.8-0.2-1.1,0.1l-6.5,7.8v-6l7.7-9.2c0.3-0.3,0.2-0.8-0.1-1.1c-0.3-0.3-0.8-0.2-1.1,0.1l-6.5,7.8V51.8l6.3-3.2   c0.5-0.2,1-0.2,1.5,0l4.4,2.3c0.5,0.3,0.8,0.8,0.9,1.4L65,64.2c0,0.4-0.1,0.8-0.4,1.1l-13,15.6V76z"/>
        <path id="Right-Foot" fill="#FF0" d="M75.8,75.5v5.6   l-1.5-3.9c-0.1-0.3-0.4-0.5-0.7-0.5h-3.6c-0.4,0-0.7,0.3-0.7,0.7s0.3,0.7,0.7,0.7h3.1l1.4,3.9l-2.7-2.6h-6.5l3.1-3.9H75.8z"/>
        <path id="Right-Beak" fill="#FF0" d="M78.7,36.7h-6.1l0.2-5.9L78.7,36.7z"/>
        <path id="Right-Body" fill="#FF0" d="M71.4,28.8C71.3,28.9,71.3,28.9,71.4,28.8l-0.3,7.9l-2.8,5.1c-0.3,0.7-0.4,1.4-0.3,2.1H62   c-0.4,0-0.8,0.3-0.8,0.8s0.3,0.8,0.8,0.8h6.5c0,0,0,0,0,0.1l4,8.2c0.3,0.4,0.4,0.9,0.4,1.4v9c0,0.5-0.2,1.1-0.5,1.5L51.6,91.9v-8.6   l14.2-17.1c0.5-0.6,0.8-1.3,0.7-2.1l-0.3-11.9c0-1.1-0.7-2.2-1.7-2.7l-4.4-2.3c-0.9-0.5-2-0.5-2.9,0l-5.6,2.9V18.9H68L71.4,28.8z"/>
    </g>
    <g id="Bird-Eyes">
        <path id="Left-Eye" fill="#000000" d="M42.6,19.3c0.3-0.3,0.3-0.8,0-1.1s-0.8-0.3-1.1,0l-3,3l-3-3c-0.3-0.3-0.8-0.3-1.1,0s-0.3,0.8,0,1.1l3.6,3.5   c0.2,0.2,0.4,0.2,0.5,0.2s0.4-0.1,0.5-0.2L42.6,19.3z"/>
        <path id="Right-Eye" fill="#000000" d="M57.4,30.2l3.6,3.5c0.1,0.1,0.3,0.2,0.5,0.2s0.4-0.1,0.5-0.2l3.6-3.5c0.3-0.3,0.3-0.8,0-1.1   c-0.3-0.3-0.8-0.3-1.1,0l-3,3l-3-3c-0.3-0.3-0.8-0.3-1.1,0C57.1,29.4,57.1,29.9,57.4,30.2z"/>
    </g>
</svg>
